<svg xmlns="http://www.w3.org/2000/svg"  viewBox="0 0 100 100" width="100px" height="100px"><path fill="#ffca58" d="M70,19.001H31c-6.6,0-12,5.4-12,12v39c0,6.6,5.4,12,12,12h39c6.6,0,12-5.4,12-12v-39 C82,24.401,76.6,19.001,70,19.001z"/><path fill="#31c4f3" d="M82,69.104v5.915C78,78,76,80,75.02,82H25.98C25,80,22,77,19,75.02v-6.359 c8.903-2.603,19.447-4.111,30.761-4.111C61.695,64.549,72.787,66.235,82,69.104z"/><path fill="#3070b7" d="M82,73.689v1.331C79,78,76,80,75.02,82H25.98C24,80,22,78,19,75.02v-1.331 c7.306-2.869,18.708-4.703,31.5-4.703C63.307,68.986,74.694,70.82,82,73.689z"/><path fill="#31c4f3" d="M82,59.832v9.273c-9.213-2.869-20.305-4.555-32.239-4.555c-11.313,0-21.858,1.508-30.761,4.111 v-9.228c9.11-2.411,19.521-3.756,30.761-3.756C61.606,55.676,72.565,57.17,82,59.832z"/><path fill="#40a6dd" d="M82,41.523v18.308c-9.435-2.662-20.394-4.156-32.239-4.156c-11.239,0-21.651,1.346-30.761,3.756 V41.183c9.406-2.115,19.743-3.254,30.761-3.254C61.37,37.93,72.21,39.187,82,41.523z"/><path fill="#3070b7" d="M82,25.98v15.543c-9.79-2.337-20.63-3.594-32.239-3.594c-11.018,0-21.355,1.139-30.761,3.254V25.98 C22,24,23,22,25.98,19H75.02C77,22,79,23,82,25.98z"/><path fill="#3070b7" d="M79,78c-1.183,2.13-3,2-3.98,4H25.98C25,80,23.198,80.13,22,78c8.37-2.662,16.906-3.838,28.5-3.838 S70.63,75.338,79,78z"/><path fill="#1f212b" d="M70,83.001H31c-7.18,0-13-5.82-13-13v-39c0-7.18,5.82-13,13-13h39c7.18,0,13,5.82,13,13v39 C83,77.181,77.179,83.001,70,83.001z M20,31.001v39c0,6.075,4.925,11,11,11h39c6.075,0,11-4.925,11-11v-39c0-6.075-4.925-11-11-11 H31C24.924,20.001,20,24.926,20,31.001z"/><circle cx="50.5" cy="50.5" r="25.5" fill="#fff"/><path fill="#f05b6c" d="M69,34c0,0-8-8-19-8c-10,0-17,7-17,7s-6,6-7,17c10,0,41,0,49,0C75,43,69,34,69,34z"/><circle cx="50.5" cy="50.5" r="24.5" fill="none" stroke="#1f212b" stroke-linecap="round" stroke-linejoin="round" stroke-miterlimit="10" stroke-width="2"/><path fill="none" stroke="#1f212b" stroke-linecap="round" stroke-linejoin="round" stroke-miterlimit="10" d="M57.397,68.745 C55.253,69.556,52.928,70,50.5,70"/><path fill="none" stroke="#1f212b" stroke-linecap="round" stroke-linejoin="round" stroke-miterlimit="10" d="M69.676,54.059 c-1.07,5.802-4.709,10.705-9.693,13.484"/><path fill="none" stroke="#1f212b" stroke-linecap="round" stroke-linejoin="round" stroke-miterlimit="10" d="M42.37,32.77 C44.845,31.634,47.598,31,50.5,31"/><path fill="none" stroke="#1f212b" stroke-linecap="round" stroke-linejoin="round" stroke-miterlimit="10" d="M38.229,35.344 c0.603-0.489,1.237-0.943,1.897-1.358"/><path fill="none" stroke="#1f212b" stroke-linecap="round" stroke-linejoin="round" stroke-miterlimit="10" d="M33.196,41.502 c0.839-1.61,1.896-3.088,3.132-4.395"/><line x1="26.5" x2="74.5" y1="49.5" y2="49.5" fill="none" stroke="#1f212b" stroke-linecap="round" stroke-linejoin="round" stroke-miterlimit="10"/><circle cx="50.5" cy="49.5" r="7" fill="none" stroke="#1f212b" stroke-linecap="round" stroke-linejoin="round" stroke-miterlimit="10"/><circle cx="50.5" cy="49.5" r="6.5" fill="#fff"/></svg>